<svg version="1.0" xmlns="http://www.w3.org/2000/svg"
 width="20px" height="20px" viewBox="0 0 512.000000 512.000000"
 preserveAspectRatio="xMidYMid meet">

<g transform="translate(0.000000,512.000000) scale(0.100000,-0.100000)"
fill="#000000" stroke="none">
<path d="M2301 4899 c-243 -26 -544 -114 -776 -228 -567 -280 -997 -772 -1194
-1366 -84 -253 -121 -479 -121 -742 0 -1194 883 -2191 2070 -2338 622 -77
1262 109 1760 510 352 283 610 658 755 1100 158 477 154 1011 -11 1490 -294
853 -1055 1465 -1952 1570 -137 16 -395 18 -531 4z m173 -181 c-62 -207 -170
-440 -282 -608 -81 -121 -200 -266 -299 -362 l-68 -67 -135 90 c-175 118 -319
203 -508 302 l-154 79 34 35 c125 130 407 314 625 407 233 99 539 172 740 175
l62 1 -15 -52z m331 42 c219 -25 492 -101 688 -193 95 -45 276 -148 326 -186
l23 -18 -168 -88 c-472 -246 -873 -495 -1251 -779 -100 -75 -185 -136 -188
-136 -2 0 -56 42 -118 93 -62 50 -128 103 -146 117 l-34 26 84 84 c255 260
450 583 561 926 l53 164 40 0 c22 0 81 -5 130 -10z m1292 -612 c183 -179 315
-354 426 -568 52 -100 132 -288 125 -295 -1 -1 -41 4 -88 12 -112 20 -519 23
-645 5 -257 -37 -490 -109 -720 -221 -142 -70 -393 -223 -410 -252 -4 -5 -62
48 -128 118 -67 70 -164 168 -214 217 -51 48 -91 92 -88 96 11 18 333 253 499
365 213 142 412 265 626 385 186 105 470 250 488 250 8 0 65 -51 129 -112z
m-2983 -196 c177 -92 397 -222 524 -312 l73 -51 -43 -33 c-256 -193 -581 -337
-906 -400 -148 -29 -342 -45 -342 -29 0 19 70 220 105 304 20 46 59 127 87
179 91 172 281 430 315 430 9 0 93 -40 187 -88z m852 -554 c70 -57 135 -110
145 -118 17 -14 11 -21 -83 -100 -134 -112 -462 -439 -567 -565 -220 -264
-361 -476 -486 -730 -96 -195 -144 -320 -187 -484 -16 -64 -31 -117 -33 -119
-5 -6 -110 165 -161 263 -122 233 -203 499 -234 775 -15 124 -7 480 12 585
l13 70 113 7 c441 28 897 196 1251 462 41 31 78 56 82 56 4 0 64 -46 135 -102z
m2605 -243 c58 -9 112 -20 118 -25 7 -4 21 -45 31 -92 65 -289 67 -647 5 -938
-102 -484 -384 -946 -764 -1253 l-85 -69 -66 204 c-153 468 -342 867 -594
1253 -100 152 -206 299 -297 411 -42 52 -54 73 -45 80 92 69 261 171 381 230
226 110 431 172 690 209 136 19 482 14 626 -10z m-2079 -234 c92 -96 168 -178
168 -181 0 -3 -47 -54 -104 -112 -430 -438 -665 -985 -683 -1588 -6 -196 5
-345 36 -508 l18 -92 -21 6 c-165 46 -402 159 -569 271 -148 99 -229 166 -359
297 l-108 109 6 41 c13 83 73 304 109 401 125 335 329 662 621 995 111 127
392 404 529 521 l100 86 44 -36 c24 -20 120 -114 213 -210z m289 -323 c11 -13
64 -81 118 -153 302 -398 556 -868 724 -1340 71 -199 131 -405 121 -415 -22
-20 -195 -113 -287 -153 -177 -77 -340 -126 -542 -163 -142 -26 -567 -27 -705
-1 -131 24 -128 23 -141 70 -54 198 -75 560 -44 797 20 158 67 354 120 495 80
214 226 470 360 631 70 84 236 254 248 254 5 0 17 -10 28 -22z"/>
</g>
</svg>
