<?xml version="1.0" standalone="no"?>
<!DOCTYPE svg PUBLIC "-//W3C//DTD SVG 20010904//EN"
 "http://www.w3.org/TR/2001/REC-SVG-20010904/DTD/svg10.dtd">
<svg version="1.0" xmlns="http://www.w3.org/2000/svg"
 width="2560.000000pt" height="2480.000000pt" viewBox="0 0 2560.000000 2480.000000"
 preserveAspectRatio="xMidYMid meet">

<g transform="translate(0.000000,2480.000000) scale(0.100000,-0.100000)"
fill="#000000" stroke="none">
<path d="M12499 22606 c-3 -3 -154 -10 -335 -16 -209 -6 -354 -15 -399 -25
-38 -8 -99 -14 -135 -15 -62 0 -172 -13 -515 -62 -222 -31 -710 -127 -775
-152 -19 -7 -57 -17 -85 -21 -27 -4 -62 -13 -76 -20 -14 -8 -48 -17 -75 -20
-27 -4 -66 -15 -87 -26 -21 -10 -50 -19 -65 -19 -16 0 -55 -8 -88 -19 -32 -10
-108 -33 -169 -51 -161 -47 -404 -130 -447 -151 -21 -11 -45 -19 -55 -19 -10
0 -31 -9 -48 -20 -16 -11 -39 -20 -50 -20 -11 0 -37 -9 -58 -20 -20 -11 -44
-20 -53 -20 -9 0 -42 -11 -73 -24 -31 -14 -90 -38 -131 -54 -198 -79 -384
-165 -408 -188 -7 -8 -22 -14 -31 -14 -10 0 -30 -9 -44 -20 -14 -11 -31 -20
-39 -20 -33 0 -442 -214 -494 -258 -5 -5 -27 -15 -47 -21 -20 -7 -40 -17 -43
-23 -3 -5 -25 -19 -48 -29 -56 -27 -95 -50 -133 -77 -17 -12 -36 -22 -41 -22
-16 0 -112 -62 -112 -71 0 -5 -5 -9 -12 -9 -12 0 -109 -59 -118 -72 -10 -13
-78 -56 -101 -63 -13 -4 -32 -15 -42 -23 -10 -9 -34 -25 -53 -37 -75 -45 -263
-178 -439 -312 -27 -21 -83 -62 -125 -92 -41 -29 -98 -75 -125 -101 -28 -26
-68 -59 -90 -73 -39 -26 -60 -42 -266 -222 -202 -174 -598 -559 -676 -655 -16
-19 -85 -92 -153 -161 -69 -69 -145 -152 -170 -185 -24 -32 -51 -66 -60 -74
-33 -30 -128 -146 -165 -200 -20 -30 -47 -64 -59 -75 -23 -20 -90 -105 -178
-225 -26 -36 -65 -87 -87 -115 -22 -27 -45 -62 -52 -77 -7 -16 -15 -28 -19
-28 -4 0 -74 -100 -156 -222 -135 -203 -177 -270 -275 -438 -18 -30 -46 -77
-64 -105 -48 -74 -79 -129 -135 -235 -27 -52 -67 -129 -89 -170 -59 -108 -197
-391 -206 -420 -4 -14 -18 -45 -31 -70 -64 -123 -232 -517 -259 -610 -4 -14
-13 -38 -20 -55 -47 -107 -157 -425 -204 -590 -16 -55 -46 -156 -66 -225 -101
-344 -194 -773 -260 -1200 -47 -307 -55 -365 -70 -525 -9 -88 -18 -171 -20
-185 -10 -51 -35 -681 -35 -875 0 -251 25 -790 44 -950 8 -66 18 -156 21 -200
4 -44 13 -111 20 -150 7 -38 16 -104 20 -145 3 -41 13 -104 21 -140 8 -36 19
-101 24 -145 6 -44 16 -109 25 -145 8 -36 26 -126 41 -200 44 -233 137 -609
158 -644 8 -11 16 -42 20 -69 3 -26 12 -57 20 -70 7 -12 19 -44 25 -72 7 -27
16 -54 21 -60 5 -6 15 -37 24 -70 42 -164 66 -248 85 -291 12 -25 21 -52 21
-58 0 -14 39 -108 68 -163 12 -23 22 -50 22 -60 0 -10 9 -31 20 -48 11 -16 20
-38 20 -47 0 -18 38 -122 71 -194 11 -23 19 -46 19 -52 0 -11 52 -123 71 -152
5 -8 16 -31 25 -50 9 -19 26 -57 39 -85 43 -94 55 -123 55 -132 0 -15 114
-236 154 -298 36 -54 90 -153 124 -223 7 -15 17 -34 23 -42 5 -8 17 -31 27
-50 9 -19 38 -68 64 -109 27 -40 48 -77 48 -80 0 -4 28 -50 63 -103 72 -112
92 -146 123 -211 13 -26 30 -50 39 -53 14 -6 127 -167 205 -293 19 -31 54 -77
78 -101 23 -24 42 -47 42 -51 0 -3 21 -34 47 -67 27 -34 59 -80 73 -103 14
-23 45 -63 70 -88 25 -25 74 -85 108 -134 35 -48 66 -87 70 -87 4 0 18 -17 32
-37 34 -51 80 -105 159 -189 76 -82 159 -175 255 -289 38 -44 93 -102 125
-130 31 -27 103 -97 161 -156 58 -59 146 -141 195 -182 50 -42 142 -121 205
-176 63 -56 148 -126 188 -156 39 -31 89 -74 110 -96 21 -21 61 -54 89 -72 29
-17 81 -57 117 -88 36 -30 78 -62 93 -69 15 -8 53 -35 83 -60 30 -26 87 -68
125 -95 39 -26 88 -62 110 -80 22 -18 96 -69 165 -115 69 -46 134 -91 145
-100 11 -10 45 -31 75 -47 30 -17 96 -56 145 -87 50 -31 108 -66 130 -77 22
-12 70 -42 108 -66 37 -24 86 -53 110 -63 43 -20 58 -29 162 -91 33 -20 98
-53 145 -74 47 -21 92 -43 100 -50 22 -17 314 -159 390 -188 36 -14 99 -41
140 -60 41 -19 93 -40 115 -47 22 -7 72 -28 110 -47 82 -40 239 -103 258 -103
7 0 17 -4 23 -9 9 -9 106 -42 274 -93 158 -49 415 -130 468 -149 29 -11 62
-19 73 -19 11 0 33 -7 49 -15 15 -8 61 -19 102 -25 40 -6 93 -17 118 -25 25
-7 63 -16 85 -20 22 -3 78 -14 125 -25 241 -53 467 -94 627 -115 62 -7 129
-19 150 -25 54 -15 328 -48 538 -65 99 -8 225 -19 280 -24 141 -14 1128 -23
1260 -11 61 5 173 14 250 19 297 23 474 43 590 68 66 13 179 33 250 43 150 21
321 55 383 76 23 8 64 14 89 14 26 0 76 7 112 16 36 8 134 31 216 50 83 19
170 42 195 50 25 9 74 24 110 34 36 10 90 25 121 34 31 9 70 23 85 31 16 8 37
15 47 15 10 0 34 7 55 16 20 9 60 22 87 29 28 7 64 18 80 23 81 29 253 82 264
82 7 0 24 9 38 20 14 11 38 20 53 20 15 0 33 6 39 14 7 8 24 17 39 21 15 3 50
17 77 30 93 45 280 123 345 145 36 13 79 30 95 40 17 10 41 21 55 25 14 4 36
15 50 25 14 9 38 20 55 24 16 4 32 11 35 15 12 18 486 261 508 261 5 0 15 7
22 15 11 13 90 62 178 110 20 11 62 37 93 58 31 20 61 37 66 37 11 0 192 119
390 257 62 43 154 107 205 142 51 35 116 82 143 105 28 23 61 49 75 58 14 8
50 37 80 63 30 25 71 55 90 65 20 10 74 52 120 94 46 42 88 76 92 76 5 0 30
19 56 43 26 24 92 81 147 127 122 104 198 176 572 548 162 161 310 314 330
340 19 26 69 83 110 127 42 43 97 111 123 150 26 38 71 97 100 129 28 33 63
77 76 98 14 21 40 55 58 76 18 20 46 56 62 78 16 23 63 86 104 140 81 107 130
180 130 193 0 5 37 60 83 122 105 145 142 200 169 252 11 23 46 80 78 127 57
84 106 167 166 281 17 32 42 75 56 96 33 50 118 194 118 201 0 3 33 73 74 157
41 83 78 163 81 178 4 15 11 30 16 33 5 2 17 24 28 47 11 23 25 49 30 57 19
31 61 122 61 133 0 6 9 29 20 51 10 23 31 77 45 121 14 44 37 103 50 130 42
89 124 279 140 325 58 168 85 252 85 264 0 8 18 61 41 118 48 124 116 345 136
448 8 41 23 104 33 140 11 36 35 135 55 220 20 85 46 189 56 230 11 41 25 98
30 125 6 28 19 79 30 115 11 36 22 95 24 132 2 36 8 83 14 105 5 21 13 79 16
128 4 50 11 106 16 125 5 19 14 100 19 180 6 80 15 163 21 185 5 22 14 150 19
285 5 135 14 295 20 355 13 137 13 611 0 725 -5 47 -14 191 -20 320 -6 129
-18 276 -26 326 -8 50 -18 164 -23 255 -5 90 -12 171 -15 179 -2 8 -12 92 -21
185 -9 94 -24 195 -34 225 -10 30 -22 84 -25 119 -4 35 -13 73 -21 85 -8 11
-17 46 -20 76 -4 30 -13 73 -21 95 -7 22 -20 74 -28 115 -16 91 -43 204 -57
245 -6 17 -19 73 -29 125 -10 52 -28 115 -39 140 -11 25 -21 55 -21 68 0 13
-7 37 -16 55 -9 17 -23 54 -30 82 -20 76 -143 445 -165 491 -10 23 -19 48 -19
55 0 8 -8 30 -19 49 -10 19 -24 53 -31 75 -7 22 -19 49 -25 60 -7 11 -18 37
-25 58 -7 22 -18 51 -26 65 -8 15 -14 34 -14 42 0 8 -12 38 -25 65 -14 28 -25
55 -25 62 0 10 -35 88 -65 143 -27 49 -125 251 -125 257 0 5 -26 61 -124 263
-12 25 -34 63 -48 85 -26 38 -82 137 -114 200 -8 17 -28 50 -44 75 -16 25 -35
56 -42 70 -6 14 -43 77 -81 140 -39 63 -82 134 -96 158 -14 24 -62 97 -106
163 -44 66 -87 133 -95 148 -8 15 -31 47 -51 72 -20 24 -40 54 -43 66 -4 12
-38 61 -77 110 -38 48 -82 104 -97 123 -16 19 -44 62 -64 95 -20 33 -49 71
-63 85 -15 14 -55 61 -88 105 -34 44 -75 93 -92 110 -17 16 -51 57 -77 90 -52
68 -79 98 -181 206 -40 42 -93 100 -119 130 -198 228 -442 469 -638 630 -36
29 -72 61 -80 70 -31 36 -258 233 -328 286 -40 30 -97 76 -127 103 -30 26 -74
60 -98 76 -23 16 -62 45 -87 65 -25 20 -56 42 -70 49 -14 7 -54 37 -90 65
-104 83 -308 221 -412 279 -38 20 -68 40 -68 44 0 10 -84 62 -100 62 -7 0 -27
13 -46 29 -33 30 -125 86 -245 150 -37 20 -133 74 -214 120 -282 160 -816 411
-1120 526 -55 21 -152 58 -215 82 -293 113 -634 218 -1060 327 -464 119 -1008
216 -1415 251 -38 3 -135 12 -215 20 -80 8 -224 17 -320 19 -519 14 -746 18
-751 12z m536 -556 c362 -14 640 -37 970 -81 2466 -331 4705 -1601 6270 -3559
1161 -1452 1879 -3206 2064 -5045 34 -337 42 -466 48 -835 31 -1851 -441
-3597 -1400 -5187 -556 -921 -1317 -1795 -2167 -2488 -1466 -1196 -3254 -1937
-5125 -2124 -384 -38 -534 -45 -990 -45 -454 0 -599 6 -990 45 -2168 213
-4225 1181 -5794 2724 -987 971 -1734 2099 -2236 3375 -546 1388 -758 2871
-629 4395 90 1075 386 2193 837 3170 144 313 257 531 415 805 678 1177 1601
2204 2707 3010 1418 1033 3100 1660 4860 1810 422 36 759 45 1160 30z"/>
<path d="M12215 19300 c-115 -4 -230 -10 -255 -14 -25 -3 -112 -15 -195 -26
-428 -58 -692 -117 -1090 -245 -132 -43 -291 -93 -353 -113 -166 -52 -168 -50
178 -192 872 -357 1302 -588 1829 -985 183 -138 259 -200 701 -575 836 -710
1764 -1351 2468 -1704 99 -50 433 -200 552 -248 158 -64 396 -137 577 -177 73
-16 364 -61 396 -61 49 0 -240 951 -402 1328 -229 531 -536 1017 -892 1412
-53 58 -155 175 -229 260 -107 125 -617 674 -949 1023 -43 44 -86 78 -125 97
-143 70 -538 148 -1041 206 -161 19 -819 27 -1170 14z"/>
<path d="M15740 18610 c0 -5 33 -46 73 -92 348 -399 767 -929 922 -1166 337
-517 589 -1111 781 -1847 58 -221 93 -340 119 -401 15 -37 15 -37 63 -30 26 3
135 30 242 60 107 30 305 84 440 121 308 85 550 162 556 179 26 67 -367 712
-716 1177 -389 519 -1074 1159 -1655 1546 -364 243 -825 496 -825 453z"/>
<path d="M9307 18429 c-50 -12 -66 -21 -248 -134 -196 -124 -340 -222 -504
-345 -280 -210 -373 -294 -805 -737 -362 -371 -445 -462 -560 -612 -170 -222
-266 -364 -412 -611 -236 -399 -383 -680 -493 -940 -73 -174 -216 -599 -309
-920 -67 -233 -129 -521 -114 -535 7 -7 105 30 213 80 135 62 503 211 630 255
419 144 993 279 1485 349 390 56 1083 100 1650 105 139 1 973 -24 979 -30 4
-4 -435 -588 -453 -603 -6 -5 -49 -5 -101 0 -125 13 -1091 14 -1310 1 -287
-17 -967 -117 -1335 -196 -461 -99 -1011 -286 -1370 -466 -150 -75 -408 -223
-470 -270 l-25 -19 0 -433 c0 -458 8 -613 51 -944 57 -455 172 -921 342 -1394
85 -234 109 -293 220 -527 54 -114 141 -300 192 -411 l94 -204 325 5 c313 5
426 11 991 57 585 47 1374 171 1943 306 440 104 587 149 1100 341 169 64 309
114 311 112 40 -50 307 -411 304 -413 -13 -11 -865 -312 -995 -351 -244 -75
-804 -201 -1155 -260 -464 -79 -1437 -171 -1913 -181 -163 -4 -592 -38 -602
-48 -12 -12 22 -64 181 -276 161 -215 498 -603 696 -800 343 -343 820 -710
1294 -995 719 -432 1493 -720 2343 -871 147 -26 274 -44 295 -41 20 3 92 28
160 57 198 84 871 421 1013 507 300 182 685 452 890 623 44 37 403 406 797
821 649 682 729 769 834 914 434 599 718 1102 969 1720 86 212 109 283 125
389 9 62 9 80 -1 86 -37 24 -189 35 -454 34 -232 0 -309 -4 -450 -23 -279 -37
-552 -102 -935 -221 -85 -27 -156 -47 -158 -45 -2 2 119 167 270 367 l275 363
84 23 c373 101 814 153 1126 132 155 -10 305 -32 382 -56 77 -23 70 -34 111
161 156 739 241 1222 216 1231 -6 2 -308 78 -671 170 -363 91 -661 167 -662
168 -23 21 -550 732 -544 734 7 2 217 -43 536 -117 72 -17 321 -78 555 -136
660 -164 841 -207 846 -202 3 3 12 70 19 149 10 97 15 285 15 589 l0 446 -132
6 c-449 21 -1035 206 -1718 543 -592 292 -1345 776 -1984 1276 l-175 138 -197
260 c-108 143 -200 263 -205 266 -5 2 -28 -22 -51 -55 -24 -33 -45 -60 -48
-60 -3 -1 -118 94 -255 210 -294 248 -355 296 -535 416 -495 330 -1041 609
-1630 833 -202 78 -835 264 -844 249 -1 -1 -18 -5 -39 -10z m3814 -2534 c519
-691 767 -1020 909 -1205 70 -91 185 -246 255 -345 144 -201 377 -513 721
-960 357 -465 727 -958 748 -996 l18 -34 -428 -567 c-236 -311 -592 -781 -790
-1045 -199 -263 -393 -518 -431 -568 -38 -49 -222 -292 -409 -540 -188 -247
-421 -556 -519 -685 -98 -129 -248 -329 -334 -443 l-156 -208 -39 43 c-21 24
-72 90 -114 148 -41 58 -145 195 -231 305 -197 254 -601 792 -891 1185 -320
435 -792 1065 -956 1275 -438 562 -834 1093 -834 1120 0 4 29 44 65 89 35 44
368 486 740 981 371 495 755 1006 853 1135 98 129 350 465 562 745 211 281
487 644 613 808 l230 299 32 -34 c18 -18 191 -244 386 -503z"/>
<path d="M12940 14866 c-288 -86 -511 -315 -606 -619 -10 -32 -25 -62 -34 -67
-8 -4 -87 -27 -175 -50 -404 -105 -544 -166 -761 -329 -238 -178 -393 -393
-466 -647 -19 -66 -23 -101 -22 -219 1 -120 4 -152 26 -223 76 -244 278 -405
539 -427 209 -19 419 94 499 267 49 106 49 109 -9 146 -133 87 -211 246 -211
432 0 223 113 414 323 544 76 47 176 86 222 86 30 0 34 -18 37 -208 l3 -143
-185 -88 -185 -88 -12 -129 c-6 -71 -14 -149 -17 -173 l-6 -44 68 6 c71 7 150
30 217 64 89 45 81 59 89 -164 18 -556 19 -654 6 -775 -18 -172 -69 -377 -157
-627 l-26 -73 -46 6 c-25 3 -126 33 -226 66 -317 104 -471 122 -607 71 -75
-29 -150 -97 -185 -169 -24 -49 -28 -69 -28 -142 0 -105 26 -170 92 -231 85
-78 339 -180 487 -195 95 -10 172 5 494 92 97 26 108 27 165 15 34 -7 116 -35
182 -63 304 -126 438 -160 635 -160 103 -1 145 4 240 27 184 44 361 128 543
255 121 84 352 316 439 440 166 235 270 504 303 780 19 158 19 262 0 425 -47
407 -229 794 -509 1083 -156 162 -367 302 -547 362 -108 37 -121 46 -114 83
14 82 25 173 36 293 27 283 -41 451 -205 513 -78 29 -204 28 -306 -3z m75
-426 c24 -26 30 -93 15 -180 l-12 -73 -67 7 c-36 3 -90 6 -118 6 -48 0 -53 2
-53 23 1 59 72 166 139 209 53 33 72 35 96 8z m241 -739 c193 -126 457 -515
538 -793 64 -222 57 -392 -30 -690 -121 -418 -341 -795 -549 -943 -81 -58
-213 -120 -312 -147 -107 -29 -307 -31 -375 -5 -27 10 -48 20 -48 22 0 1 52
87 116 191 245 396 389 681 517 1020 84 221 157 480 139 495 -4 3 -36 16 -72
29 -95 33 -225 102 -305 162 -86 65 -135 134 -135 191 0 36 7 48 68 113 37 39
135 144 217 232 83 88 155 161 161 161 6 1 37 -16 70 -38z m-1582 -2552 c46
-21 126 -84 126 -99 0 -5 -17 -14 -37 -19 -113 -32 -263 13 -263 77 0 7 11 24
25 37 31 32 88 33 149 4z"/>
<path d="M19090 14824 c-36 -8 -358 -93 -716 -191 l-652 -176 -6 -516 c-3
-284 -7 -626 -9 -760 l-2 -244 30 -10 c17 -5 136 -54 265 -107 378 -157 1070
-481 1470 -690 63 -33 129 -63 146 -66 27 -5 32 -3 37 18 10 36 8 535 -3 723
-24 416 -63 691 -150 1055 -100 421 -190 725 -267 895 -43 95 -37 92 -143 69z"/>
<path d="M17634 12285 c-25 -17 -48 -94 -65 -215 -6 -47 -43 -233 -81 -415
-38 -181 -88 -422 -111 -534 l-42 -203 275 -272 c527 -519 776 -846 1016
-1333 68 -138 130 -269 139 -290 16 -37 17 -37 31 -18 69 91 232 424 337 690
174 438 296 852 412 1398 56 265 56 247 -1 289 -79 57 -692 393 -904 496 -429
207 -800 371 -919 406 -66 19 -62 19 -87 1z"/>
<path d="M17004 9928 c-262 -661 -646 -1343 -1081 -1923 -330 -439 -524 -662
-965 -1106 -316 -320 -332 -334 -753 -678 -341 -278 -481 -385 -675 -517 -135
-91 -274 -183 -310 -204 -63 -37 -113 -80 -93 -80 33 0 371 35 543 56 440 54
764 131 1245 294 442 151 763 294 1170 522 672 377 915 561 1484 1123 301 297
576 596 653 709 84 122 98 234 54 426 -83 363 -253 707 -528 1072 -92 122
-385 463 -446 520 -54 51 -138 108 -158 108 -6 0 -69 -145 -140 -322z"/>
<path d="M6318 7328 c-59 -59 -98 -129 -98 -175 0 -17 -7 -36 -15 -43 -10 -8
-15 -31 -15 -66 0 -33 -4 -54 -11 -54 -17 0 -3 -73 26 -134 l23 -51 -21 -15
c-42 -28 -97 -94 -97 -115 0 -13 -7 -28 -15 -35 -21 -18 -20 -44 2 -35 12 4 9
-3 -10 -22 -28 -30 -35 -53 -17 -53 6 0 4 -13 -5 -31 -13 -24 -14 -37 -6 -62
11 -31 6 -49 -58 -202 -5 -11 -17 -42 -26 -68 -17 -47 -75 -119 -105 -129 -21
-8 11 -32 73 -55 26 -9 47 -20 47 -25 0 -4 -13 -14 -30 -23 -37 -19 -37 -23
-3 -36 21 -8 24 -12 13 -19 -11 -7 -8 -11 13 -19 16 -6 39 -11 53 -11 23 0 24
-3 24 -60 0 -64 23 -136 39 -125 6 3 8 11 5 18 -3 8 -1 24 4 37 9 23 9 23 15
-8 4 -18 16 -55 28 -82 17 -39 26 -49 39 -45 11 3 20 -1 24 -11 3 -9 13 -14
20 -11 8 3 17 -1 20 -9 7 -19 24 -18 28 2 2 11 36 -15 113 -86 193 -180 464
-459 522 -538 32 -42 59 -79 61 -82 2 -3 12 6 21 20 58 88 127 166 286 325
176 177 367 357 386 363 5 2 9 -4 9 -14 0 -16 1 -16 18 -1 10 10 21 14 25 11
3 -3 11 3 18 14 7 11 19 17 29 15 19 -5 20 -3 56 97 19 52 24 59 24 35 0 -16
4 -36 9 -43 16 -27 34 18 39 99 l5 79 31 0 c36 0 61 13 53 27 -4 6 6 16 21 22
l27 13 -40 21 -40 20 40 18 c22 10 45 19 50 19 6 0 21 9 33 18 l24 18 -29 19
c-49 31 -64 54 -103 153 -21 53 -50 123 -64 155 -15 32 -21 57 -15 57 6 0 9 6
6 14 -3 8 -1 16 5 18 8 3 8 13 0 36 -6 18 -9 39 -5 48 3 8 -5 26 -18 40 -19
21 -21 27 -9 34 12 7 11 12 -5 30 -11 12 -19 30 -17 40 3 19 -66 98 -102 117
-18 10 -18 12 8 66 30 64 41 147 17 132 -6 -3 -7 9 -4 30 3 20 -1 53 -9 78 -8
23 -23 69 -34 102 -15 47 -32 73 -80 122 -34 35 -68 63 -77 63 -8 0 -26 -15
-40 -33 -45 -59 -148 -154 -265 -244 l-72 -56 -69 13 c-65 12 -173 10 -298 -6
-46 -6 -55 -4 -90 22 -21 16 -40 31 -43 34 -3 3 -30 25 -60 50 -81 65 -179
161 -198 193 -25 41 -54 35 -114 -25z m66 -117 c22 -14 46 -48 81 -118 27 -53
64 -116 81 -139 l32 -42 -60 -27 c-33 -15 -61 -25 -63 -23 -1 1 -12 23 -25 47
l-22 44 26 -5 c14 -3 26 -4 26 -2 0 1 -9 24 -21 51 -11 26 -26 75 -33 108
l-12 60 -14 -37 c-15 -41 -27 -48 -37 -21 -13 34 -21 -24 -13 -93 5 -38 7 -71
5 -73 -3 -2 -12 2 -20 9 -14 12 -15 10 -10 -13 5 -16 3 -27 -3 -27 -6 0 -12
-10 -14 -22 -3 -18 -7 -13 -17 22 -17 59 -9 158 20 235 34 93 41 98 93 66z
m1265 -27 c27 -57 41 -130 40 -203 -1 -54 -16 -127 -18 -88 -1 9 -8 17 -16 17
-12 0 -14 7 -9 28 6 23 5 25 -8 14 -14 -11 -15 -2 -10 80 l5 93 -21 -18 c-22
-20 -26 -17 -36 26 -9 38 -26 34 -26 -6 0 -19 -9 -60 -21 -93 -36 -103 -35
-98 -10 -84 21 11 22 10 16 -12 -18 -58 -35 -79 -58 -72 -17 5 -75 35 -95 50
-2 1 13 24 32 51 20 28 55 88 79 134 41 80 88 129 122 129 7 0 22 -21 34 -46z
m-838 -615 c62 -67 77 -212 34 -332 -14 -39 -22 -73 -17 -76 5 -3 8 -17 6 -31
-2 -14 -6 -44 -9 -67 -2 -23 -9 -53 -15 -68 -14 -38 -13 -62 2 -47 16 16 38
15 38 -2 0 -13 4 -13 35 0 42 17 124 18 178 2 32 -10 41 -10 45 0 2 7 13 10
28 6 l24 -6 -16 48 c-8 27 -17 85 -19 129 -2 44 -13 107 -24 140 -26 75 -26
122 -2 210 15 52 28 77 52 99 31 27 35 28 109 24 84 -5 113 -15 86 -30 -27
-15 -18 -28 22 -28 39 0 83 -18 89 -36 5 -14 -69 -25 -109 -17 -23 4 -26 8
-17 19 19 23 -50 17 -101 -8 -51 -26 -96 -92 -72 -107 10 -6 10 -14 2 -35 -5
-15 -10 -39 -10 -52 l0 -26 34 21 c19 12 50 21 74 21 31 0 51 8 85 34 81 62
117 72 117 34 0 -36 -34 -83 -70 -98 l-33 -14 23 -18 22 -18 -41 0 c-23 0 -41
-5 -41 -11 0 -7 -11 -8 -32 -4 -27 6 -30 5 -24 -10 5 -13 2 -16 -10 -11 -9 3
-27 9 -41 12 -22 6 -24 5 -16 -11 6 -10 8 -26 6 -35 -3 -10 2 -29 11 -43 9
-13 32 -61 50 -106 l33 -81 7 46 c10 76 39 116 112 154 65 35 95 67 51 55 -12
-3 1 6 28 20 59 32 73 42 86 66 7 15 6 17 -5 13 -14 -5 -14 -3 -1 24 22 43 34
118 25 158 -8 35 -5 40 19 25 8 -5 11 -16 8 -25 -3 -8 -2 -18 4 -22 6 -3 8
-13 4 -22 -3 -8 4 -25 17 -39 l22 -24 -23 -6 c-23 -6 -23 -7 -5 -20 14 -10 16
-16 6 -22 -10 -6 -8 -13 6 -32 40 -52 69 -169 42 -169 -5 0 -10 7 -10 15 0 21
-22 65 -33 65 -5 0 -6 -8 -2 -17 25 -65 29 -223 5 -223 -4 0 -13 27 -20 61 -7
33 -21 70 -32 82 -18 22 -18 22 -11 -18 10 -54 9 -185 -1 -210 -6 -17 -10 -12
-24 29 -25 74 -42 70 -26 -6 16 -75 17 -88 5 -88 -5 0 -11 13 -14 29 -7 36
-65 131 -79 131 -6 0 -4 -10 4 -22 23 -35 48 -147 48 -214 0 -65 -26 -180 -52
-229 -16 -30 -16 -29 -16 50 0 44 -5 94 -12 110 -13 30 -13 30 -22 -34 -5 -34
-19 -82 -31 -105 l-22 -41 -5 45 -5 45 -28 -55 c-24 -50 -27 -52 -24 -22 5 47
-13 35 -50 -34 l-32 -59 -2 40 -1 40 -9 -38 c-10 -44 -41 -107 -45 -92 -1 6
-5 27 -9 48 -3 20 -9 37 -13 37 -5 0 -13 -31 -20 -69 -8 -49 -28 -101 -65
-173 -30 -57 -57 -114 -61 -128 -6 -23 -9 -20 -30 30 -13 30 -42 91 -64 135
-26 50 -46 106 -53 150 -9 52 -14 65 -20 50 -4 -11 -8 -35 -8 -54 -1 -28 -3
-32 -16 -21 -8 7 -20 30 -25 51 -11 39 -29 45 -31 11 0 -10 -6 -4 -12 13 -16
41 -50 95 -59 95 -4 0 -5 -15 -1 -32 6 -29 4 -31 -9 -21 -8 7 -21 32 -28 55
-11 36 -14 40 -20 23 -5 -11 -6 -30 -3 -42 3 -13 1 -23 -5 -23 -14 0 -43 74
-57 145 l-11 60 -13 -53 c-8 -30 -11 -76 -9 -103 3 -27 2 -49 -2 -49 -4 0 -17
26 -29 58 -49 134 -51 226 -7 353 38 110 -17 44 -59 -70 l-14 -36 0 35 c0 19
4 55 10 79 5 24 7 46 4 50 -9 9 -24 -21 -31 -61 -4 -21 -10 -38 -15 -38 -15 0
-22 72 -16 167 4 52 3 92 -1 89 -8 -5 -35 -83 -48 -141 -7 -28 -8 -26 -17 24
-8 39 -7 75 2 124 6 39 9 72 6 75 -2 3 -14 -15 -25 -39 l-20 -44 4 59 c4 46
12 70 35 103 24 34 27 43 14 43 -14 0 -14 2 2 20 16 18 16 20 2 20 -21 0 -22
23 -2 40 9 7 14 19 11 26 -3 7 0 16 5 20 6 3 9 15 6 25 -3 12 2 23 12 29 16 8
17 4 13 -43 -3 -47 4 -82 33 -151 6 -14 5 -17 -3 -12 -7 4 -12 3 -12 -3 0 -14
59 -61 105 -83 22 -11 30 -17 17 -15 -41 9 -19 -16 43 -50 74 -39 103 -75 111
-136 6 -45 24 -76 24 -42 0 9 19 55 41 103 23 48 41 96 41 107 -1 10 4 26 11
34 10 12 8 13 -18 7 -16 -4 -38 -9 -47 -12 -13 -4 -16 -1 -12 11 5 13 2 15
-20 9 -16 -4 -26 -2 -26 5 0 6 -18 11 -42 11 -38 1 -41 2 -25 14 22 17 22 36
-1 36 -27 0 -72 53 -75 86 -3 39 27 43 73 10 19 -14 46 -33 59 -42 12 -10 48
-21 78 -25 30 -4 63 -15 74 -25 27 -24 34 0 14 55 -13 38 -13 42 0 37 47 -18
-15 80 -70 111 -46 26 -125 33 -106 9 9 -11 6 -15 -14 -19 -35 -6 -115 3 -115
14 0 16 59 39 100 39 44 0 52 11 18 27 -22 10 -22 11 12 21 19 6 64 11 98 11
59 1 66 -1 93 -30z m-116 -181 c27 13 34 2 11 -18 -22 -17 -60 -8 -65 15 -3
17 -1 18 13 6 13 -11 22 -11 41 -3z m600 2 c15 13 17 12 14 -5 -5 -24 -48 -33
-60 -13 -14 22 -10 29 10 16 15 -9 23 -9 36 2z"/>
<path d="M7339 5930 c0 -25 -3 -39 -6 -32 -10 25 -21 11 -28 -36 -7 -53 -24
-92 -25 -57 -1 11 -9 36 -20 55 l-19 35 -1 -40 c0 -22 -10 -60 -21 -85 -20
-44 -75 -110 -91 -110 -5 0 -7 36 -6 81 3 77 2 82 -25 105 -25 21 -38 24 -113
24 -92 0 -138 -15 -149 -50 -3 -11 -6 -50 -5 -87 1 -38 1 -72 1 -77 -2 -17
-53 39 -82 89 -21 37 -29 63 -29 100 0 43 -2 47 -14 35 -8 -8 -19 -31 -24 -50
l-10 -35 -16 37 c-9 21 -17 50 -17 65 -1 17 -3 21 -6 10 -7 -27 -23 -9 -23 26
0 24 -3 28 -12 19 -7 -7 -12 -41 -12 -80 -1 -82 12 -106 129 -230 107 -114
113 -117 266 -117 120 0 127 1 167 27 56 38 193 200 215 256 15 38 16 53 7 91
-17 72 -30 84 -31 31z"/>
<path d="M17819 7338 c-57 -53 -96 -114 -104 -164 -4 -22 -14 -54 -22 -73 -9
-19 -16 -52 -16 -73 0 -21 -4 -38 -10 -38 -16 0 1 -81 29 -135 l26 -50 -24
-15 c-47 -30 -100 -92 -95 -111 3 -10 -4 -25 -14 -35 -20 -18 -25 -44 -9 -44
6 0 0 -14 -12 -31 -16 -22 -19 -33 -11 -36 9 -3 8 -14 -5 -39 -10 -22 -13 -38
-7 -42 19 -13 16 -45 -10 -110 -15 -37 -30 -71 -35 -77 -4 -5 -15 -35 -25 -67
-18 -65 -65 -134 -100 -150 -14 -6 -25 -15 -25 -19 0 -9 99 -59 117 -59 23 0
14 -19 -17 -35 -33 -17 -32 -35 1 -35 16 0 19 -5 14 -19 -5 -17 0 -21 37 -26
l43 -7 1 -51 c2 -59 24 -130 39 -126 6 2 9 10 7 17 -2 8 0 21 3 31 4 11 16 -9
37 -62 24 -64 33 -77 48 -72 11 3 20 -1 24 -11 3 -9 13 -14 20 -11 8 3 17 -1
20 -9 7 -19 26 -18 26 2 0 21 92 -61 320 -284 180 -175 292 -299 344 -378 15
-24 32 -44 36 -44 4 0 21 20 36 44 59 89 282 324 515 541 146 136 139 131 148
117 6 -9 15 -9 39 4 18 8 32 19 32 23 0 4 10 7 22 7 17 -1 26 12 49 74 26 70
28 72 28 38 1 -21 6 -38 12 -38 18 0 39 68 39 130 l0 60 33 0 c41 0 68 16 49
29 -10 6 -5 12 20 20 l33 12 -40 21 -40 21 45 19 c62 26 94 44 98 57 2 6 -3
11 -12 11 -34 0 -83 69 -121 172 -20 55 -48 122 -60 146 -21 42 -22 47 -8 69
14 21 14 28 0 63 -8 22 -11 40 -6 40 16 0 10 19 -16 45 -19 18 -22 25 -10 25
20 0 19 13 -4 34 -11 10 -17 25 -14 37 4 13 -8 32 -38 63 -24 23 -52 47 -62
53 -18 10 -18 11 2 50 30 60 46 132 32 146 -6 6 -11 24 -11 41 0 29 -19 101
-49 186 -15 43 -127 170 -150 170 -5 0 -62 -53 -128 -117 -65 -65 -144 -136
-176 -157 -31 -22 -57 -44 -57 -49 0 -6 -19 -7 -52 -1 -68 10 -234 10 -319 0
-64 -8 -68 -8 -105 20 -22 16 -44 34 -50 39 -7 6 -38 32 -70 60 -99 83 -183
167 -189 186 -10 31 -47 22 -96 -23z m39 -118 c20 0 63 -53 90 -111 17 -37 51
-96 76 -132 l44 -65 -58 -26 c-31 -14 -60 -26 -63 -26 -5 0 -37 75 -37 86 0 4
9 4 21 1 16 -4 19 -2 14 11 -32 75 -46 123 -48 159 -2 49 -17 51 -29 5 -10
-36 -22 -40 -38 -14 -8 13 -10 -5 -7 -75 3 -86 2 -91 -15 -82 -16 9 -18 7 -12
-15 4 -16 2 -26 -4 -26 -6 0 -12 -10 -14 -22 -3 -18 -7 -13 -17 22 -17 58 -10
146 19 230 25 75 37 93 57 85 8 -3 18 -5 21 -5z m1279 -27 c40 -94 56 -244 33
-298 -7 -17 -9 -17 -9 -2 -1 9 -7 17 -15 17 -9 0 -12 8 -8 28 5 24 3 25 -11
14 -14 -12 -15 -5 -10 80 5 83 4 91 -9 74 -19 -24 -34 -15 -41 24 -10 47 -24
35 -31 -27 -4 -32 -17 -79 -30 -105 -25 -52 -24 -63 5 -47 13 7 19 6 19 -1 0
-12 -38 -90 -44 -90 -9 0 -116 52 -116 56 0 3 14 22 30 43 17 21 52 80 78 132
33 66 57 100 81 116 47 31 59 29 78 -14z m-836 -624 c62 -67 78 -217 34 -333
-20 -53 -23 -71 -14 -87 7 -15 7 -29 0 -51 -6 -17 -9 -34 -6 -38 3 -5 1 -19
-3 -32 -5 -12 -12 -36 -16 -51 -6 -26 -5 -28 15 -22 13 4 24 2 29 -5 6 -10 15
-10 40 -1 45 15 129 14 179 -4 36 -12 41 -12 41 1 0 10 7 13 24 8 l25 -6 -14
53 c-8 29 -12 56 -9 61 3 5 0 15 -6 24 -8 8 -11 30 -7 54 3 28 -3 66 -19 118
-28 92 -29 111 -8 205 13 56 24 79 51 106 33 33 34 34 111 29 96 -5 111 -13
80 -38 l-23 -19 45 -1 c47 0 91 -17 97 -36 5 -15 -66 -24 -109 -14 -18 4 -27
8 -20 9 6 1 12 6 12 11 0 18 -74 10 -115 -13 -46 -26 -88 -92 -67 -106 10 -6
10 -14 2 -35 -5 -15 -10 -39 -10 -52 l0 -26 34 21 c18 12 47 21 64 21 43 0 79
16 119 50 70 62 121 49 82 -21 -24 -42 -35 -51 -74 -64 -19 -6 -19 -7 4 -26
l23 -19 -41 0 c-23 0 -41 -5 -41 -11 0 -7 -11 -8 -30 -4 -26 6 -29 4 -23 -11
5 -14 3 -16 -11 -11 -39 15 -66 19 -66 9 0 -6 5 -14 11 -17 6 -4 8 -13 5 -21
-3 -7 15 -56 39 -108 25 -53 45 -104 46 -113 1 -10 7 7 13 37 7 30 18 65 24
77 15 27 62 63 120 92 45 23 58 46 20 36 -13 -3 -1 6 26 20 52 26 96 62 96 77
0 5 -5 6 -12 2 -8 -5 -9 0 -4 17 31 98 35 124 27 160 -10 42 -6 46 22 25 13
-10 15 -15 5 -18 -11 -4 -11 -8 0 -20 7 -9 10 -22 7 -30 -3 -8 3 -23 15 -33
24 -22 26 -35 4 -35 -14 0 -14 -3 -3 -16 10 -12 10 -17 0 -23 -10 -6 -9 -12 4
-25 23 -22 57 -123 53 -155 -4 -24 -5 -23 -22 17 -17 39 -46 63 -31 25 23 -60
27 -223 5 -223 -4 0 -13 27 -20 61 -7 33 -21 70 -32 82 l-18 22 7 -30 c11 -49
9 -213 -3 -225 -9 -9 -13 -3 -18 23 -3 18 -13 42 -22 53 -14 18 -15 16 -9 -26
3 -25 8 -60 11 -77 8 -43 -11 -43 -20 -1 -6 30 -65 132 -72 125 -2 -2 6 -30
18 -63 41 -116 31 -295 -22 -394 l-19 -35 0 75 c0 82 -8 130 -22 130 -5 0 -9
-12 -9 -26 0 -38 -21 -116 -39 -144 l-16 -24 -5 44 -5 45 -27 -55 c-26 -54
-26 -55 -27 -21 -1 27 -4 31 -15 22 -8 -6 -24 -35 -37 -64 l-23 -52 -7 40 c-4
26 -7 31 -8 15 -1 -14 -11 -45 -23 -70 l-21 -45 -10 48 c-5 26 -12 47 -16 47
-4 0 -12 -31 -19 -68 -7 -46 -28 -100 -60 -163 -27 -52 -54 -110 -61 -129
l-12 -35 -23 56 c-12 31 -38 85 -57 120 -36 67 -53 114 -64 188 -9 52 -25 37
-25 -24 0 -34 -2 -38 -15 -25 -8 8 -21 33 -28 55 -13 36 -15 38 -21 17 -7 -20
-11 -15 -38 38 -32 66 -54 80 -42 28 6 -29 5 -31 -9 -19 -9 7 -19 28 -23 47
-9 49 -24 52 -24 5 0 -23 -4 -41 -8 -41 -14 0 -41 69 -55 140 l-13 65 -13 -53
c-8 -30 -11 -76 -9 -103 8 -82 -7 -65 -48 56 -27 80 -24 213 8 303 19 52 22
70 11 61 -16 -14 -49 -74 -68 -128 l-14 -36 0 35 c0 19 4 55 10 79 5 24 7 46
4 50 -9 9 -24 -21 -31 -61 -4 -21 -10 -38 -15 -38 -15 0 -22 72 -16 167 4 54
3 92 -2 88 -9 -5 -31 -72 -47 -140 l-7 -30 -7 25 c-12 38 -11 113 1 170 14 66
5 75 -21 19 l-20 -44 4 57 c3 43 12 70 35 103 24 36 27 45 14 45 -14 0 -14 2
2 20 16 18 16 20 2 20 -21 0 -21 9 -1 38 9 13 13 26 10 29 -3 3 -1 12 5 19 6
8 9 20 5 29 -3 8 2 19 13 24 16 9 17 5 13 -42 -3 -47 4 -82 33 -151 6 -14 5
-17 -3 -12 -7 4 -12 3 -12 -3 0 -14 59 -61 105 -83 22 -11 30 -17 18 -15 -42
9 -23 -12 47 -53 81 -48 98 -68 106 -132 8 -57 19 -69 29 -30 3 15 23 61 43
102 19 41 36 84 37 95 1 11 6 28 10 39 7 16 5 17 -11 9 -10 -6 -31 -13 -46
-17 -23 -5 -26 -3 -21 10 5 14 2 16 -20 10 -16 -4 -27 -2 -27 4 0 5 -19 10
-42 10 -34 1 -39 3 -25 11 24 14 21 26 -10 41 -32 15 -75 75 -71 97 5 26 41
24 78 -3 76 -56 96 -66 130 -66 19 0 50 -9 68 -20 41 -25 49 -12 28 48 -13 37
-13 42 -1 42 39 0 -16 80 -75 110 -47 24 -119 28 -101 6 9 -11 6 -15 -15 -19
-39 -7 -104 4 -104 18 0 17 45 35 90 35 44 0 52 12 18 27 -22 10 -22 11 12 21
19 6 64 11 98 11 59 1 66 -1 93 -30z m-116 -181 c28 13 34 2 10 -18 -19 -16
-65 -4 -65 16 0 14 3 14 15 4 12 -10 21 -10 40 -2z m596 -3 c15 5 20 3 17 -6
-8 -23 -62 -18 -67 6 -3 17 -1 17 12 6 10 -7 25 -10 38 -6z"/>
<path d="M18830 5930 c-1 -25 -4 -39 -7 -32 -8 20 -23 14 -23 -10 0 -13 -5
-41 -11 -63 l-11 -40 -21 55 -21 55 -7 -50 c-8 -63 -37 -120 -83 -165 l-36
-34 2 88 c3 85 2 88 -25 112 -25 21 -38 24 -114 24 -94 0 -139 -17 -150 -58
-3 -12 -3 -52 -1 -87 5 -78 -6 -83 -51 -26 -41 52 -61 101 -61 153 -1 41 -1
42 -16 23 -8 -11 -18 -33 -21 -48 -8 -37 -19 -24 -37 43 -8 30 -15 47 -15 37
-1 -31 -21 -7 -22 26 l-1 32 -13 -30 c-20 -43 -18 -102 5 -151 12 -23 64 -88
118 -143 95 -99 98 -102 157 -112 84 -16 229 -4 269 20 69 43 202 203 221 264
14 45 8 106 -13 142 -10 17 -12 14 -12 -25z"/>
</g>
</svg>
