<svg version="1.0" xmlns="http://www.w3.org/2000/svg"
 width="25px" height="25px" viewBox="0 0 512.000000 512.000000"
 preserveAspectRatio="xMidYMid meet">

<g transform="translate(0.000000,512.000000) scale(0.100000,-0.100000)"
fill="#000000" stroke="none">
<path d="M2345 4699 c-415 -42 -826 -213 -1147 -477 -89 -73 -248 -234 -319
-322 -215 -269 -369 -608 -434 -957 -112 -601 53 -1250 439 -1729 67 -84 228
-246 314 -316 526 -433 1234 -588 1901 -418 596 152 1120 579 1390 1134 226
464 279 984 151 1485 -74 290 -225 588 -418 823 -73 89 -234 248 -322 319
-430 344 -1008 514 -1555 458z m1245 -2139 l0 -1330 -1030 0 -1030 0 0 1330 0
1330 1030 0 1030 0 0 -1330z"/>
<path d="M1850 3345 l0 -75 710 0 710 0 0 75 0 75 -710 0 -710 0 0 -75z"/>
<path d="M1854 3077 c-3 -8 -4 -43 -2 -78 l3 -64 705 0 705 0 0 75 0 75 -703
3 c-585 2 -703 0 -708 -11z"/>
<path d="M1857 2743 c-4 -3 -7 -37 -7 -75 l0 -68 385 0 385 0 0 75 0 75 -378
0 c-208 0 -382 -3 -385 -7z"/>
<path d="M2880 1975 l0 -425 193 2 192 3 3 423 2 422 -195 0 -195 0 0 -425z"/>
<path d="M1852 1888 l3 -333 193 -3 192 -2 0 335 0 335 -195 0 -195 0 2 -332z"/>
<path d="M2370 1780 l0 -230 190 0 190 0 0 230 0 230 -190 0 -190 0 0 -230z"/>
</g>
</svg>
