<svg version="1.0" xmlns="http://www.w3.org/2000/svg"
 width="50px" height="50px" viewBox="0 0 512.000000 512.000000"
 preserveAspectRatio="xMidYMid meet">

<g transform="translate(0.000000,512.000000) scale(0.100000,-0.100000)"
fill="#000000" stroke="none">
<path d="M185 3855 l-25 -24 0 -451 0 -451 23 -23 c17 -17 39 -24 85 -29 115
-12 198 -68 253 -169 31 -58 34 -70 34 -148 0 -78 -3 -90 -34 -148 -54 -99
-140 -157 -253 -169 -46 -5 -68 -12 -85 -29 l-23 -23 0 -451 0 -451 25 -24 24
-25 2351 0 2351 0 24 25 25 24 0 451 0 451 -23 23 c-17 17 -39 24 -86 29 -116
12 -211 80 -263 187 -32 66 -31 196 2 265 50 103 147 170 262 182 46 5 68 12
85 29 l23 23 0 451 0 451 -25 24 -24 25 -2351 0 -2351 0 -24 -25z m4615 -479
l0 -344 -34 -6 c-64 -12 -172 -74 -229 -132 -90 -90 -137 -205 -137 -334 0
-129 47 -244 137 -334 57 -58 165 -120 229 -132 l34 -6 0 -344 0 -344 -2240 0
-2240 0 0 344 0 344 34 6 c55 10 167 71 213 115 54 53 97 116 124 182 26 66
36 195 20 268 -35 164 -160 303 -318 353 l-73 23 0 343 0 342 2240 0 2240 0 0
-344z"/>
<path d="M3465 3535 l-25 -24 0 -231 0 -231 25 -24 c15 -16 36 -25 55 -25 19
0 40 9 55 25 l25 24 0 231 0 231 -25 24 c-15 16 -36 25 -55 25 -19 0 -40 -9
-55 -25z"/>
<path d="M1385 3095 c-16 -15 -25 -36 -25 -55 0 -19 9 -40 25 -55 l24 -25 671
0 671 0 24 25 c33 32 33 78 0 110 l-24 25 -671 0 -671 0 -24 -25z"/>
<path d="M3465 2815 l-25 -24 0 -231 0 -231 25 -24 c15 -16 36 -25 55 -25 19
0 40 9 55 25 l25 24 0 231 0 231 -25 24 c-15 16 -36 25 -55 25 -19 0 -40 -9
-55 -25z"/>
<path d="M1385 2615 c-16 -15 -25 -36 -25 -55 0 -19 9 -40 25 -55 l24 -25 671
0 671 0 24 25 c33 32 33 78 0 110 l-24 25 -671 0 -671 0 -24 -25z"/>
<path d="M1385 2135 c-16 -15 -25 -36 -25 -55 0 -19 9 -40 25 -55 l24 -25 671
0 671 0 24 25 c33 32 33 78 0 110 l-24 25 -671 0 -671 0 -24 -25z"/>
<path d="M3465 2095 l-25 -24 0 -231 0 -231 25 -24 c15 -16 36 -25 55 -25 19
0 40 9 55 25 l25 24 0 231 0 231 -25 24 c-15 16 -36 25 -55 25 -19 0 -40 -9
-55 -25z"/>
</g>
</svg>
